<?xml version="1.0" standalone="no"?>
<!DOCTYPE svg PUBLIC "-//W3C//DTD SVG 20010904//EN"
 "http://www.w3.org/TR/2001/REC-SVG-20010904/DTD/svg10.dtd">
<svg version="1.0" xmlns="http://www.w3.org/2000/svg"
 width="512.000000pt" height="512.000000pt" viewBox="0 0 512.000000 512.000000"
 preserveAspectRatio="xMidYMid meet">

<g transform="translate(0.000000,512.000000) scale(0.100000,-0.100000)"
fill="#000000" stroke="none">
<path d="M320 4947 c-49 -16 -133 -102 -148 -153 -18 -60 -18 -4408 0 -4468
16 -55 99 -138 154 -154 32 -9 542 -12 2236 -12 2475 0 2252 -8 2331 80 24 26
49 66 55 88 17 57 17 4407 0 4464 -6 22 -31 62 -55 88 -79 88 145 80 -2337 79
-1574 -1 -2211 -4 -2236 -12z m4455 -172 l25 -24 0 -376 0 -375 -2240 0 -2240
0 0 375 0 376 25 24 24 25 2191 0 2191 0 24 -25z m25 -2670 l0 -1736 -25 -24
-24 -25 -2191 0 -2191 0 -24 25 -25 24 0 1736 0 1735 2240 0 2240 0 0 -1735z"/>
<path d="M640 4627 c-49 -16 -133 -102 -148 -153 -28 -94 -8 -169 63 -239 102
-103 243 -101 338 5 93 103 90 228 -8 325 -70 71 -152 91 -245 62z m135 -172
c50 -49 15 -135 -55 -135 -41 0 -80 39 -80 80 0 41 39 80 80 80 19 0 40 -9 55
-25z"/>
<path d="M1200 4627 c-49 -16 -133 -102 -148 -153 -28 -94 -8 -169 63 -239
102 -103 243 -101 338 5 93 103 90 228 -8 325 -70 71 -152 91 -245 62z m135
-172 c50 -49 15 -135 -55 -135 -41 0 -80 39 -80 80 0 41 39 80 80 80 19 0 40
-9 55 -25z"/>
<path d="M1760 4627 c-49 -16 -133 -102 -148 -153 -28 -94 -8 -169 63 -239
102 -103 243 -101 338 5 93 103 90 228 -8 325 -70 71 -152 91 -245 62z m135
-172 c50 -49 15 -135 -55 -135 -41 0 -80 39 -80 80 0 41 39 80 80 80 19 0 40
-9 55 -25z"/>
<path d="M2400 4627 c-49 -16 -133 -102 -148 -153 -28 -94 -8 -169 63 -239 31
-32 65 -55 91 -63 31 -9 284 -12 1036 -12 1128 0 1055 -5 1131 80 90 100 90
220 0 320 -77 85 -2 80 -1137 79 -699 -1 -1012 -4 -1036 -12z m2055 -172 c16
-15 25 -36 25 -55 0 -19 -9 -40 -25 -55 l-24 -25 -991 0 -991 0 -24 25 c-16
15 -25 36 -25 55 0 19 9 40 25 55 l24 25 991 0 991 0 24 -25z"/>
<path d="M825 3495 l-25 -24 0 -511 0 -511 25 -24 24 -25 671 0 671 0 24 25
25 24 0 511 0 511 -25 24 -24 25 -671 0 -671 0 -24 -25z m1255 -535 l0 -400
-560 0 -560 0 0 400 0 400 560 0 560 0 0 -400z"/>
<path d="M2585 3335 c-16 -15 -25 -36 -25 -55 0 -19 9 -40 25 -55 l24 -25 831
0 831 0 24 25 c16 15 25 36 25 55 0 19 -9 40 -25 55 l-24 25 -831 0 -831 0
-24 -25z"/>
<path d="M2585 3015 c-16 -15 -25 -36 -25 -55 0 -19 9 -40 25 -55 l24 -25 831
0 831 0 24 25 c16 15 25 36 25 55 0 19 -9 40 -25 55 l-24 25 -831 0 -831 0
-24 -25z"/>
<path d="M2585 2695 c-16 -15 -25 -36 -25 -55 0 -19 9 -40 25 -55 l24 -25 831
0 831 0 24 25 c16 15 25 36 25 55 0 19 -9 40 -25 55 l-24 25 -831 0 -831 0
-24 -25z"/>
<path d="M825 2215 c-25 -24 -25 -26 -25 -215 0 -189 0 -191 25 -215 l24 -25
431 0 431 0 24 25 c25 24 25 26 25 215 0 189 0 191 -25 215 l-24 25 -431 0
-431 0 -24 -25z m775 -215 l0 -80 -320 0 -320 0 0 80 0 80 320 0 320 0 0 -80z"/>
<path d="M2105 2215 c-25 -24 -25 -26 -25 -215 0 -189 0 -191 25 -215 l24 -25
431 0 431 0 24 25 c25 24 25 26 25 215 0 189 0 191 -25 215 l-24 25 -431 0
-431 0 -24 -25z m775 -215 l0 -80 -320 0 -320 0 0 80 0 80 320 0 320 0 0 -80z"/>
<path d="M3385 2215 c-25 -24 -25 -26 -25 -215 0 -189 0 -191 25 -215 l24 -25
431 0 431 0 24 25 c25 24 25 26 25 215 0 189 0 191 -25 215 l-24 25 -431 0
-431 0 -24 -25z m775 -215 l0 -80 -320 0 -320 0 0 80 0 80 320 0 320 0 0 -80z"/>
<path d="M825 1575 l-25 -24 0 -431 0 -431 25 -24 24 -25 1711 0 1711 0 24 25
25 24 0 431 0 431 -25 24 -24 25 -1711 0 -1711 0 -24 -25z m3335 -455 l0 -320
-1600 0 -1600 0 0 320 0 320 1600 0 1600 0 0 -320z"/>
</g>
</svg>
